<svg id="Layer_1" enable-background="new 0 0 512 512" height="512" viewBox="0 0 512 512" width="512" xmlns="http://www.w3.org/2000/svg"><path d="m497 60.445h.01z"/><path d="m512 60.444v-45.444c0-8.284-6.716-15-15-15h-45.445c-3.979 0-7.794 1.58-10.606 4.394l-184.949 184.948-184.948-184.948c-2.813-2.814-6.628-4.394-10.607-4.394h-45.445c-8.284 0-15 6.716-15 15v45.444c0 3.979 1.58 7.794 4.394 10.606l184.948 184.95-60.519 60.52-38.975-38.975c-5.857-5.857-15.355-5.857-21.213 0s-5.858 15.355 0 21.213l38.976 38.976-48.388 48.393c-8.519 8.513-13.364 19.714-13.768 31.689-11.512.401-22.904 4.976-31.672 13.744-18.378 18.377-18.378 48.28 0 66.657 18.376 18.377 48.279 18.377 66.658 0 8.768-8.768 13.343-20.16 13.744-31.672 11.975-.405 23.175-5.25 31.684-13.765l48.398-48.391 38.976 38.976c5.86 5.86 15.356 5.857 21.213 0 5.858-5.857 5.858-15.355 0-21.213l-38.975-38.975 60.519-60.519 60.519 60.519-38.975 38.975c-5.858 5.857-5.858 15.355 0 21.213 5.86 5.86 15.356 5.857 21.213 0l38.976-38.976 48.398 48.391c8.509 8.515 19.709 13.36 31.684 13.765.401 11.512 4.976 22.904 13.744 31.672 18.379 18.377 48.282 18.377 66.658 0 18.378-18.377 18.378-48.28 0-66.657-8.768-8.768-20.16-13.342-31.672-13.744-.405-11.976-5.25-23.176-13.768-31.689l-48.388-48.393 38.976-38.976c5.858-5.857 5.858-15.355 0-21.213-5.857-5.857-15.355-5.857-21.213 0l-38.975 38.975-60.519-60.52 184.948-184.949c2.814-2.813 4.394-6.628 4.394-10.607zm-47.112 387.31c9.463 0 17.134 7.671 17.134 17.134s-7.671 17.134-17.134 17.134-17.134-7.671-17.134-17.134 7.671-17.134 17.134-17.134zm-434.888-393.523v-24.231h24.232l180.555 180.555-24.232 24.232zm17.112 427.791c-9.463 0-17.134-7.671-17.134-17.134s7.671-17.134 17.134-17.134 17.134 7.671 17.134 17.134-7.671 17.134-17.134 17.134zm57.541-50.452c-6.663 6.668-17.406 6.681-24.098.102-.079-.08-.157-.158-.237-.236-6.572-6.697-6.549-17.43.115-24.092l48.392-48.397 24.23 24.229zm326.914-24.226c6.664 6.661 6.688 17.394.115 24.092-.08.078-.159.156-.237.236-6.695 6.582-17.438 6.563-24.098-.102l-48.402-48.395 24.23-24.229zm-69.603-69.612-24.232 24.231-60.519-60.519 24.232-24.232zm120.036-283.501-307.732 307.733-24.232-24.231 307.732-307.733h24.232z"/></svg>