<svg xmlns="http://www.w3.org/2000/svg" viewBox="0 0 293.72 184.18"><defs><style>.cls-1{fill:#eaf2fa;}.cls-2{fill:#b3c5dd;}.cls-3{fill:#7e9ac4;}.cls-4{fill:#5b80c1;}.cls-5{fill:#b8dba1;}.cls-6{fill:#f7fcfe;}.cls-7{fill:#d4e382;}.cls-8{fill:#a88876;}.cls-9{fill:#d8b9a7;}.cls-10{fill:#2a9e61;}.cls-11{fill:#72b571;}.cls-12{fill:#fff;}.cls-13{fill:#f79134;}.cls-14{fill:#474748;}.cls-15{fill:#1a3763;}.cls-16{fill:#19488d;}.cls-17{fill:#f47621;}.cls-18{fill:#faab77;}.cls-19{fill:#eea320;}.cls-20{fill:#f5be43;}.cls-21{fill:#1f4777;}.cls-22{fill:#f89e63;}.cls-23{fill:#3863a1;}.cls-24{fill:#edd7c8;}.cls-25{fill:#eae9e8;}</style></defs><g id="Layer_2" data-name="Layer 2"><g id="Layer_1-2" data-name="Layer 1"><path class="cls-1" d="M103.45.48C16.79,1.55,30,72.48,30,72.48s1.27,4.38,1.67,6c.53,2.18.93,4.25,1.23,6.22l.06.45c.09.57.16,1.13.22,1.68a43.54,43.54,0,0,1,0,10.53,32.18,32.18,0,0,1-5.56,14.5,55,55,0,0,1-6.25,7.36c-.64.64-1.28,1.27-1.94,1.9-.84.82-1.69,1.62-2.54,2.43-1.14,1.08-2.27,2.16-3.39,3.27l-.72.71-1.21,1.25a54.15,54.15,0,0,0-4.63,5.47c-.31.42-.61.85-.91,1.29s-.68,1-1,1.58a33.64,33.64,0,0,0-2.69,5.52c-2.21,5.84-3.06,13-1.55,22.52a22.54,22.54,0,0,0,22.26,19l63.84,0,55.94,0h63.84l22.38,0h51.56a23.28,23.28,0,0,0,9.7-2.12,22.94,22.94,0,0,0,3.44-2V0H156.12C141.31,0,130.16.15,103.45.48Z"/><path class="cls-2" d="M179.05,149.77l95.08-14.26,19.59-9.38V76.7c-7.91-2.58-16.73-4.79-19.59-3-5.56,3.52-21.45,25-28.6,23.91s-12.45-10.49-22,3.1S208.72,119.16,200,114s-13.25-12.62-20.66-8.12S156,136,156,136Z"/><path class="cls-2" d="M21.34,119.23c21,7,87.57,29.1,103.28,30.43,18.7,1.59,21.33-13.89,21.33-13.89S125,105.58,122.38,106.11s-9.88,12.39-12.66,10.41S95.3,74.14,90.85,73.72c-4.17-.4-10.28,9.19-12,7.6-1-.88-5.3-9.95-9.78-17.83-3.57-6.29-7.23-11.82-9.32-11.81s-5,4.57-8,10.34h0C46.65,71.76,41.11,85,38,85.69c-1.51.36-3.29-.19-5.17-1l.06.45c.09.57.16,1.13.22,1.68a43.54,43.54,0,0,1,0,10.53,32.18,32.18,0,0,1-5.56,14.5A55,55,0,0,1,21.34,119.23Z"/><path class="cls-3" d="M124.62,136.34s-7.55-13.67-8.74-11.48-4.57,3.27-6.16.94-20.9-23.25-21.37-18.06,7.47,18.13,4.29,18.72S72,109.56,65.82,113.14s-13.11-3-19.66-2.78-6.36,15.31-6.36,15.31l53,16.27,25,1.19,11.92-1.39Z"/><path class="cls-4" d="M16.86,123.56s86.2,18,95.19,17.47c0,0-6.36-6.32-14.3-6.58s-11.39-7.77-20.66-8.65-14.83,1.1-18.67-.89S50.2,113.26,41.2,113.53c-7.72.22-10.67.06-13.61-1.66a61.07,61.07,0,0,1-8.19,9.26C18.56,122,17.71,122.75,16.86,123.56Z"/><path class="cls-4" d="M293.72,95.93l-.47.18c-6.55,2.73-6,7.1-11.12,7.69s-9.85.1-13.73,3.19a23.73,23.73,0,0,1-15.63,5c-5.92-.36-18.54-1.77-23.48,2.2s-14.75,12.63-23.22,12.5-13.18,2.12-14.57,4.1a5.42,5.42,0,0,1-2.6,2.28l104.82-17.89Z"/><path class="cls-5" d="M292.07,181c.56-.33,1.11-.67,1.65-1V108.59a287.33,287.33,0,0,0-63,12.46c-50.22,16-96.55,26.23-130.32,17.88-28.09-6.94-63-15.53-83.55-15.37-1.14,1.08-2.27,2.16-3.39,3.27l-.72.71-1.21,1.25a54.15,54.15,0,0,0-4.63,5.47c-.31.42-.61.85-.91,1.29s-.68,1-1,1.58a33.64,33.64,0,0,0-2.69,5.52c-.25.65-.47,1.32-.68,2l-.18.62c-.15.52-.29,1.06-.42,1.61l-.15.62c-.16.73-.3,1.48-.42,2.26,0,.12,0,.24,0,.36q-.15,1-.24,2.07L.12,153c0,.65-.08,1.31-.09,2,0,.21,0,.43,0,.65,0,.89,0,1.8,0,2.74,0,.12,0,.24,0,.36,0,1,.12,1.94.23,3a1.79,1.79,0,0,1,0,.23c.12,1.07.26,2.16.44,3.29a22.54,22.54,0,0,0,22.26,19l63.84,0,55.94,0h63.84l22.38,0h51.56a23.28,23.28,0,0,0,9.7-2.12c.6-.28,1.19-.58,1.76-.91Z"/><path class="cls-6" d="M165.94,56.56a13.68,13.68,0,0,0-13.15-6.35S139.32,38.3,125,48.63c0,0-15.27-2.56-26.57,2.21-7.54,3.18-10,6.52-10,6.52Z"/><path class="cls-6" d="M217.67,73.16s-3.28-5-11.14-4.47c0,0-11.41-8.37-23.58-1.11,0,0-12.93-1.8-22.51,1.55-6.39,2.24-8.5,4.59-8.5,4.59Z"/><path class="cls-6" d="M258.45,50.33s-2.34-5-7.94-4.47c0,0-8.13-8.38-16.79-1.12,0,0-9.22-1.79-16,1.56-4.55,2.24-6.05,4.59-6.05,4.59Z"/><path class="cls-7" d="M284.73,161.23c4.45-.34,7.32-1,9-1.81v-6.25c-2.22-2.59-5.94-5.58-9-8.71-7.83-8-28.61-5-40.15-6s16.31-10.09,21.14-13.93,3.38-6-16.57,1.28-69.24,12.84-69.24,12.84l25.91,13.11S264.6,162.79,284.73,161.23Z"/><path class="cls-8" d="M125.55,130s-7.15,17.21-7.94,17.74-3.72,1.2-3.92,2S108.93,161,108.93,161l17.47,3.37,13.91-8.14Z"/><path class="cls-9" d="M23,184.18l52.73,0H86.86l55.94,0h63.84l22.38,0h51.56a23.28,23.28,0,0,0,9.7-2.12c-14.26-6.64-57.7-26.54-92.16-38.75-41.84-14.83-65.68-22.78-72.57-13.24s18.28,29.66,4.51,30.19-46.88-3.71-59.33-1.33S59.6,166,56.18,166.23h0c-3.44.27-29.92-1.59-33.1,3.18S23,184.18,23,184.18Z"/><path class="cls-6" d="M51.75,62h0s4.59-3.58,5.65-4.66,2.38,1.52,3.18,2.63.88-2.35.88-3.41,7.61,6.91,7.61,6.91h0c-3.57-6.29-7.23-11.82-9.32-11.81S54.77,56.25,51.75,62Z"/><path class="cls-6" d="M97.7,86.05s-5.43-14.37-8.25-13.93-6.69,7-6.69,7,3.93-3.36,4.66-2.24.86,3.35,2.11,2.24,2.06-1.27,2.72,0S97.7,86.05,97.7,86.05Z"/><path class="cls-10" d="M293.72,184.08V154.94a53.55,53.55,0,0,0-18.53.05c-22.24,3.56-25.33-5.67-35.75-2.8s-13.11.43-16.95,2.8,14.57,6.34,16.55,8.19-5.3.93-1.85,5.17,24.63,5.56,24,8.61c-.53,2.44-10.33,4.2-10.93,7.12h30.35"/><path class="cls-10" d="M292.85,158s.53-10.8-4-11.54,3.37,7.94,3.14,12.26C291.91,160.83,292.85,158,292.85,158Z"/><path class="cls-11" d="M277.15,168.87s.61-6.51-1.75-7.08.52,6.79.52,6.79Z"/><path class="cls-11" d="M275.38,169s-2.54-5.13-4.81-4.42,3.63,4.79,3.63,4.79Z"/><path class="cls-11" d="M280.27,169.23a8.89,8.89,0,0,0-4.77-1.06,12.47,12.47,0,0,0-3.53,1.06c-1,.36-2.16,1.06-1.63,1.37s4.94-.26,6,0S282.94,170.2,280.27,169.23Z"/><path class="cls-11" d="M230.09,178.07s-3-13.84-7.1-10.6S227.67,173.91,230.09,178.07Z"/><path class="cls-11" d="M231.31,178.83s1.36-10.06-1.39-10.55S231.27,175.78,231.31,178.83Z"/><path class="cls-11" d="M234.11,178a10.37,10.37,0,0,0-4.1-1c-1.73.11-6.38.66-5.95,1.58s5.08.12,6.25.27S235.38,178.9,234.11,178Z"/><path class="cls-10" d="M73.82,168.27s.09-4.77-2.12-5.6S73.6,167,73.82,168.27Z"/><path class="cls-10" d="M72.05,167.59s-1.68-6-4.78-6.25S71.31,166.12,72.05,167.59Z"/><path class="cls-10" d="M278.63,147a8.84,8.84,0,0,1-4.17-.19,9,9,0,0,1,2.86-3,1.74,1.74,0,0,1,1.31,3.22Z"/><path class="cls-10" d="M270.62,148.48a8.81,8.81,0,0,1,.49,4.14,9,9,0,0,1-3.45-2.33,1.73,1.73,0,1,1,3-1.81Z"/><path class="cls-10" d="M274.9,154.7a8.94,8.94,0,0,1-4.14-.5,8.93,8.93,0,0,1,3.08-2.8,1.73,1.73,0,1,1,1.06,3.3Z"/><path class="cls-10" d="M270.28,157.78c0-.08.35-7.27,4.29-11l-.08-.09c-4,3.75-4.33,11-4.33,11.06Z"/><path class="cls-10" d="M245.11,141.05c.86.57,4.28.95,4.44.7s-1.51-3.25-2.37-3.82a1.87,1.87,0,1,0-2.07,3.12Z"/><path class="cls-10" d="M253.25,144.38c-.7.76-1.63,4.07-1.41,4.27s3.45-1,4.16-1.72a1.88,1.88,0,0,0-2.75-2.55Z"/><path class="cls-10" d="M247.38,150c.91.5,4.34.62,4.49.36s-1.76-3.13-2.66-3.63a1.87,1.87,0,1,0-1.83,3.27Z"/><path class="cls-10" d="M251.61,154.29c0-.08,1.19-7.77-2.18-12.55l.11-.07c3.4,4.82,2.21,12.56,2.2,12.64Z"/><path class="cls-10" d="M262.14,158.39l.25,0a77,77,0,0,1,5-22.24l-.23-.1A77.11,77.11,0,0,0,262.14,158.39Z"/><path class="cls-12" d="M270,134.82a6.84,6.84,0,0,1-2.91,1.29,6.81,6.81,0,0,1,.92-3.05,1.33,1.33,0,1,1,2,1.76Z"/><path class="cls-12" d="M266.56,132.9a6.76,6.76,0,0,1,.67,3.12,6.88,6.88,0,0,1-2.79-1.53,1.33,1.33,0,1,1,2.12-1.59Z"/><path class="cls-12" d="M264,135.46a6.78,6.78,0,0,1,3.15.51,6.84,6.84,0,0,1-2.45,2.05,1.33,1.33,0,0,1-.7-2.56Z"/><path class="cls-12" d="M265.56,138.64a6.74,6.74,0,0,1,1.6-2.75,6.78,6.78,0,0,1,1,3,1.33,1.33,0,0,1-2.64-.26Z"/><path class="cls-12" d="M269.18,138.49a6.74,6.74,0,0,1-1.95-2.53,6.9,6.9,0,0,1,3.18.18,1.33,1.33,0,1,1-1.23,2.35Z"/><path class="cls-13" d="M267.66,135.9a.45.45,0,0,0-.5-.37.44.44,0,1,0,.14.87A.45.45,0,0,0,267.66,135.9Z"/><path class="cls-10" d="M262.21,145.23c.72.88,1.5,4.6,1.25,4.81s-3.74-1.31-4.46-2.2a2.07,2.07,0,0,1,3.21-2.61Z"/><path class="cls-10" d="M239,159.24l-.25,0a77.38,77.38,0,0,0-5-22.24l.23-.1A77.7,77.7,0,0,1,239,159.24Z"/><path class="cls-12" d="M231.11,135.66A6.75,6.75,0,0,0,234,137a6.81,6.81,0,0,0-.92-3.05,1.34,1.34,0,0,0-1.88-.12A1.33,1.33,0,0,0,231.11,135.66Z"/><path class="cls-12" d="M234.59,133.75a6.75,6.75,0,0,0-.67,3.11,6.64,6.64,0,0,0,2.79-1.53,1.32,1.32,0,1,0-2.12-1.58Z"/><path class="cls-12" d="M237.2,136.3a6.89,6.89,0,0,0-3.15.52,6.83,6.83,0,0,0,2.45,2,1.32,1.32,0,0,0,1.63-.93A1.33,1.33,0,0,0,237.2,136.3Z"/><path class="cls-12" d="M235.59,139.49a6.79,6.79,0,0,0-1.6-2.76,6.83,6.83,0,0,0-1,3,1.33,1.33,0,0,0,2.64-.26Z"/><path class="cls-12" d="M232,139.33a6.79,6.79,0,0,0,1.94-2.52,6.87,6.87,0,0,0-3.18.17,1.33,1.33,0,1,0,1.24,2.35Z"/><path class="cls-13" d="M233.49,136.74a.43.43,0,0,1,.5-.36.45.45,0,0,1,.37.5.44.44,0,0,1-.87-.14Z"/><path class="cls-10" d="M238.94,146.08c-.72.88-1.5,4.6-1.25,4.81s3.74-1.32,4.46-2.2a2.07,2.07,0,0,0-3.21-2.61Z"/><path class="cls-10" d="M94.24,155.3c-1.16.51-5.38.25-5.52-.08s2.5-3.62,3.67-4.13a2.3,2.3,0,1,1,1.85,4.21Z"/><path class="cls-10" d="M83.69,157.63c.7,1.07,1.13,5.27.82,5.47s-4-1.89-4.67-2.95a2.3,2.3,0,1,1,3.85-2.52Z"/><path class="cls-10" d="M89.62,165.7c-1.2.43-5.39-.15-5.51-.49s2.77-3.42,4-3.85a2.3,2.3,0,0,1,1.54,4.34Z"/><path class="cls-10" d="M83.61,170c0-.1.18-9.65,5.25-14.73l-.11-.12c-5.12,5.14-5.3,14.75-5.3,14.85Z"/><path class="cls-10" d="M75.79,170.25l.22,0a68.06,68.06,0,0,1,4.36-19.46l-.2-.09A68.12,68.12,0,0,0,75.79,170.25Z"/><path class="cls-12" d="M82.71,149.62a5.82,5.82,0,0,1-2.55,1.13,5.89,5.89,0,0,1,.81-2.67,1.16,1.16,0,1,1,1.74,1.54Z"/><path class="cls-12" d="M79.66,148a5.81,5.81,0,0,1,.59,2.72,5.91,5.91,0,0,1-2.45-1.34A1.16,1.16,0,0,1,79.66,148Z"/><path class="cls-12" d="M77.38,150.18a5.88,5.88,0,0,1,2.75.46A6,6,0,0,1,78,152.42a1.16,1.16,0,0,1-1.43-.81A1.17,1.17,0,0,1,77.38,150.18Z"/><path class="cls-12" d="M78.79,153a5.81,5.81,0,0,1,1.4-2.41,6,6,0,0,1,.91,2.63,1.16,1.16,0,1,1-2.31-.22Z"/><path class="cls-12" d="M82,152.83a6,6,0,0,1-1.71-2.2,5.85,5.85,0,0,1,2.79.15A1.16,1.16,0,1,1,82,152.83Z"/><path class="cls-13" d="M80.62,150.57a.39.39,0,0,0-.44-.32.38.38,0,0,0-.31.44.38.38,0,0,0,.75-.12Z"/><path class="cls-10" d="M75.86,158.73A9.33,9.33,0,0,1,77,162.94a9.34,9.34,0,0,1-3.9-1.92,1.81,1.81,0,1,1,2.81-2.29Z"/><path class="cls-10" d="M23,184.18l52.73,0c-.26-2.52-5-3.79-4.59-6.27.57-3.18,24.06-4.37,14.63-8.42-9.26-4-28.9-3.27-29.61-3.24h0c-3.44.27-29.92-1.59-33.1,3.18S23,184.18,23,184.18Z"/><path class="cls-14" d="M179.37,155.3s-.33,5.06-1.31,5.13h-5l-6.17-.05a2,2,0,0,1,1.85-1.8c1.81-.31,4.83-1.57,5.92-4S179.37,155.3,179.37,155.3Z"/><path class="cls-14" d="M148,151s-.94,5-1.92,4.92c-.13,0-4.92-.61-4.92-.61l-6.12-.8a2,2,0,0,1,2-1.56c1.83-.08,5-1,6.36-3.19S148,151,148,151Z"/><path class="cls-15" d="M158.92,100.92s1.59,10.32,7.57,28.64,6.78,26.26,6.78,26.26l6.45-.17s.1-20-2.65-29.23-.53-33.2-.53-33.2Z"/><path class="cls-16" d="M157.17,91.55s-8.79,17.75-11,31.8-4,26.9-4,26.9a26.49,26.49,0,0,0,6.2,1.14s6.85-20.39,7.58-25.47,21.13-25.4,19.54-30.41S157.17,91.55,157.17,91.55Z"/><path class="cls-17" d="M169.9,57.31S179,66,179.41,69.61,175,78.8,175,78.8Z"/><path class="cls-18" d="M168.34,57.39l-3.44,2.24-5-.93c.07-.4.4-2.06.7-3.56,0-.09,0-.18,0-.27l.48-2.38,4.64-2,1.73-.76s-.14,1.42-.16,1.62A11.85,11.85,0,0,0,168.34,57.39Z"/><path class="cls-19" d="M161.22,56.24c.1,0,6-1.76,6.62-1.55s1,1.45,1,1.45l-9.62,2.15A4.75,4.75,0,0,1,161.22,56.24Z"/><path class="cls-20" d="M177,95.71c-1,4.54-17.58,5-21.85.91-.48-.47-.5-2.66-.31-5.61.37-5.76,1.54-14.43,1.59-18.86a36,36,0,0,1,.72-6.31,52.45,52.45,0,0,1,2.12-7.55s8.11-2.6,9.62-2.15C176.15,58.3,178,91.17,177,95.71Z"/><path class="cls-19" d="M154.8,91c.37-5.76.57-15.28.62-19.71,0-2.13,1.3-3.47,1.69-5.46L162,65S166.71,84.46,154.8,91Z"/><path class="cls-21" d="M163.54,84.19S158,79.37,156,76.32l-1.56,1.05s4.35,7.29,8.51,9.21S163.54,84.19,163.54,84.19Z"/><path class="cls-22" d="M167.05,51.39c-1,1.72-4.82,3.2-6.4,3.75,0-.09,0-.18,0-.27l.48-2.38,4.64-2C166.84,50.45,167.47,50.68,167.05,51.39Z"/><path class="cls-18" d="M159.61,52s7,3.4,9.09-1,4.34-6.95-.07-9.31-6.07-1.08-7.11.23S157.83,51,159.61,52Z"/><path class="cls-21" d="M161.87,41.5s-.33,5.44.82,5.37,2.18-.09,1.78,1.51-2.23,3.24,1.16,4,9.62-7.3,8.93-9.12C172.56,38.06,158.83,35,161.87,41.5Z"/><path class="cls-15" d="M173.21,76.36a1.05,1.05,0,0,1,.92.9c.07.79.61,10.43.12,10.69a5.65,5.65,0,0,1-2.6,0c-.12-.16-.55-10.74-.26-11.38A4,4,0,0,1,173.21,76.36Z"/><path class="cls-18" d="M154.75,87.36a4.25,4.25,0,0,0-1.41,1.8c-.39,1.51-.14,2.93,1.34,3.5.55.21.63-1.09,1-1.65s1.86-.87,1.53-1.72l-1-2.52Z"/><path class="cls-18" d="M156.68,87.86a4.71,4.71,0,0,1,1,1.67c.09.65.13,1.65.15,2.08s-.19.79-.59.09-.74-1.63-1-1.63S156.68,87.86,156.68,87.86Z"/><path class="cls-20" d="M163.05,57.14s-5.77,1-10.22,7.55-6.11,10.71-5.29,13.07a75.35,75.35,0,0,0,5.68,10.67c.71.84,2.74.78,4.07.21,0,0-2.58-10.88-1.54-12.06.44-.5,6.15-5.33,7.06-3C164.3,77.46,163.05,57.14,163.05,57.14Z"/><path class="cls-21" d="M158.12,59.36a4.54,4.54,0,0,1,3.19-2c2.24-.34,3.59,2.27,3.59,2.27l-1.67.64s-1.08-2-2-2A4.83,4.83,0,0,0,158.12,59.36Z"/><path class="cls-21" d="M161.75,67.37s2.34,0,5.33-.1c5.26-.12,12.55-.36,12.74-.74.29-.6-.1-7.27-1.9-7.75a3.57,3.57,0,0,0-.66-.11c-2.9-.28-11.78.25-13.82.91C161.19,60.3,161.75,67.37,161.75,67.37Z"/><path class="cls-23" d="M167.08,67.27c5.26-.12,12.55-.36,12.74-.74.29-.6-.1-7.27-1.9-7.75a3.57,3.57,0,0,0-.66-.11,48.84,48.84,0,0,0-8.49.91C166.68,60.25,167,66.41,167.08,67.27Z"/><path class="cls-23" d="M161.75,67.37s18-1.79,21.14-.75S186,88.92,185,90.38s-18.68,2.83-21.19,2.05S161.75,67.37,161.75,67.37Z"/><path class="cls-21" d="M167.08,66.9s2.46.23,2.69,2,1.78,23.13.37,23.69-7.29.34-7.63,0-1.61-23.78-.76-25.2A14.59,14.59,0,0,1,167.08,66.9Z"/><path class="cls-15" d="M178.25,61.08s.57,3-.17,3.41-2.54.58-3,.06-.35-3.41-.35-3.41Z"/><path class="cls-4" d="M178.25,61.08a1.64,1.64,0,0,1-1.66,1.22,1.93,1.93,0,0,1-1.85-1.16A4.59,4.59,0,0,1,178.25,61.08Z"/><path class="cls-13" d="M176.85,61.83a.26.26,0,0,0-.27-.25.26.26,0,1,0,0,.52A.27.27,0,0,0,176.85,61.83Z"/><path class="cls-15" d="M172.94,61.44s.76,2.92.05,3.42-2.5.74-3,.24-.57-3.38-.57-3.38Z"/><path class="cls-4" d="M172.94,61.44a1.64,1.64,0,0,1-1.57,1.33,1.94,1.94,0,0,1-1.93-1.05A4.58,4.58,0,0,1,172.94,61.44Z"/><path class="cls-13" d="M171.59,62.28a.27.27,0,0,0-.28-.24.26.26,0,0,0-.24.29.27.27,0,0,0,.28.24A.28.28,0,0,0,171.59,62.28Z"/><path class="cls-21" d="M183.23,69.13s.78,2.75.34,3.47-10.33,1.21-11,.62-.73-3.75-.73-3.75Z"/><path class="cls-4" d="M183.23,69.13s-1.35,1.7-4.77,1.75a17.27,17.27,0,0,1-6.59-1.41S179.87,68.05,183.23,69.13Z"/><circle class="cls-13" cx="178.7" cy="70.24" r="0.29"/><path class="cls-4" d="M174.58,76.25s8.18-.35,8.65,0,.66,11.61.3,12.16-8.63.8-8.63.8Z"/><path class="cls-7" d="M0,158.1c5-.24,12.55-.63,19.05-1,10.85-.71,6.09-4.06,1.05-8.83s15.63-2.12,31-1.05,38.4.52,30.2-6.13-67.86-14.21-67.86-14.21l-.72.71-1.21,1.25a54.15,54.15,0,0,0-4.63,5.47c-.31.42-.61.85-.91,1.29s-.68,1-1,1.58a33.64,33.64,0,0,0-2.69,5.52A38.75,38.75,0,0,0,0,158.1Z"/><path class="cls-11" d="M278.37,120.28c-1.59,1.32,4.08,1.46,9.12,1.46,1.89,0,4.2,0,6.23.16v-6.59a7.85,7.85,0,0,0-2.24,1C287.77,118.69,280,119,278.37,120.28Z"/><path class="cls-24" d="M92.54,176.2l-.38-6.32s3.18-2.64,3.64-2.83,7.31-1.23,7.31-1.23l-.3,5.94-2.14,4.31Z"/><path class="cls-25" d="M108.16,176s.45-4.6.21-5.1-4.54-5.21-5.26-5.07A28.79,28.79,0,0,0,97.76,168c-.69.55-2.29,4.91-2.26,5.36s.16,2.79.16,2.79Z"/><path class="cls-24" d="M103.16,177.67l0-2.71a1.33,1.33,0,0,1,.53-1.08,23.06,23.06,0,0,1,2.22-1.56c.21-.08,2.27-.32,3.79-.5a1.32,1.32,0,0,1,1.47,1.44l-.22,2.45a1.21,1.21,0,0,1-.16.52l-1.18,2.16a1.32,1.32,0,0,1-1.2.68l-3.91-.09A1.32,1.32,0,0,1,103.16,177.67Z"/><path class="cls-25" d="M113.48,179.23a1.32,1.32,0,0,0,1.35-1.17,12.78,12.78,0,0,0,.16-2.54c-.16-.38-4.31-3.75-4.84-3.66a11.43,11.43,0,0,0-2.88,1.21,13.41,13.41,0,0,0-1.82,3.88v.79a1.33,1.33,0,0,0,1.29,1.3Z"/><path class="cls-24" d="M212.56,161.34l0-2.29a1.14,1.14,0,0,0-.44-.92c-.62-.46-1.68-1.24-1.88-1.32s-1.93-.27-3.21-.42a1.12,1.12,0,0,0-1.24,1.22l.18,2.07a1.08,1.08,0,0,0,.14.44l1,1.83a1.13,1.13,0,0,0,1,.58l3.31-.09A1.11,1.11,0,0,0,212.56,161.34Z"/><path class="cls-25" d="M203.83,162.66a1.13,1.13,0,0,1-1.14-1,10.4,10.4,0,0,1-.13-2.14c.13-.32,3.64-3.17,4.09-3.1a9.58,9.58,0,0,1,2.43,1,11.43,11.43,0,0,1,1.55,3.28v.66a1.14,1.14,0,0,1-1.09,1.11Z"/><path class="cls-24" d="M221.94,163l0-1.25a.65.65,0,0,0-.24-.5,10.1,10.1,0,0,0-1-.71c-.1,0-1-.15-1.75-.23a.6.6,0,0,0-.67.66l.1,1.13a.62.62,0,0,0,.07.23l.55,1a.59.59,0,0,0,.55.31l1.79,0A.62.62,0,0,0,221.94,163Z"/><path class="cls-25" d="M217.19,163.74a.61.61,0,0,1-.62-.54,6.25,6.25,0,0,1-.07-1.16,9.39,9.39,0,0,1,2.22-1.69,5.24,5.24,0,0,1,1.33.56,6.35,6.35,0,0,1,.84,1.78v.37a.62.62,0,0,1-.59.6Z"/><path class="cls-24" d="M128.81,167.08l0-1.25a.56.56,0,0,0-.24-.49,10.65,10.65,0,0,0-1-.72c-.1,0-1-.15-1.75-.23a.6.6,0,0,0-.67.66l.1,1.13a.73.73,0,0,0,.07.24l.55,1a.59.59,0,0,0,.55.31l1.79,0A.62.62,0,0,0,128.81,167.08Z"/><path class="cls-25" d="M124.06,167.8a.63.63,0,0,1-.62-.54,6.39,6.39,0,0,1-.07-1.17,9.35,9.35,0,0,1,2.22-1.68,5.21,5.21,0,0,1,1.33.55,6.27,6.27,0,0,1,.84,1.79v.36a.61.61,0,0,1-.59.6Z"/><path class="cls-24" d="M247,180.22l0-1.25a.59.59,0,0,0-.24-.5,10.68,10.68,0,0,0-1-.71c-.09,0-1-.15-1.74-.23a.6.6,0,0,0-.68.66l.1,1.13a.75.75,0,0,0,.08.24l.54,1a.59.59,0,0,0,.55.31l1.8,0A.61.61,0,0,0,247,180.22Z"/><path class="cls-25" d="M242.25,180.93a.61.61,0,0,1-.63-.54,6.25,6.25,0,0,1-.07-1.16,9.44,9.44,0,0,1,2.23-1.69,5.34,5.34,0,0,1,1.32.56,6.35,6.35,0,0,1,.84,1.78v.37a.62.62,0,0,1-.6.6Z"/><path class="cls-24" d="M218.26,159.39v-.87a.41.41,0,0,0-.17-.35,8.68,8.68,0,0,0-.71-.5c-.06,0-.73-.1-1.21-.16a.42.42,0,0,0-.47.46l.07.79a.34.34,0,0,0,.05.17l.38.69a.43.43,0,0,0,.38.22l1.25,0A.44.44,0,0,0,218.26,159.39Z"/><path class="cls-25" d="M215,159.89a.42.42,0,0,1-.43-.38,3.82,3.82,0,0,1-.05-.81,6.91,6.91,0,0,1,1.55-1.18,4,4,0,0,1,.92.39,4.4,4.4,0,0,1,.59,1.25v.25a.43.43,0,0,1-.41.42Z"/></g></g></svg>